<mxfile host="app.diagrams.net" agent="Mozilla/5.0 (Windows NT 10.0; Win64; x64) AppleWebKit/537.36 (KHTML, like Gecko) Chrome/132.0.0.0 Safari/537.36" version="26.0.16">
  <diagram name="Page-1" id="hYuiBNfjRdiiBP-YzXJv">
    <mxGraphModel dx="1338" dy="1040" grid="1" gridSize="10" guides="1" tooltips="1" connect="1" arrows="1" fold="1" page="1" pageScale="1" pageWidth="850" pageHeight="1100" math="0" shadow="0">
      <root>
        <mxCell id="0" />
        <mxCell id="1" parent="0" />
        <mxCell id="c4UvGvd-CYI1I5oLqbDR-26" value="" style="edgeStyle=orthogonalEdgeStyle;rounded=0;orthogonalLoop=1;jettySize=auto;html=1;" edge="1" parent="1" source="c4UvGvd-CYI1I5oLqbDR-1" target="c4UvGvd-CYI1I5oLqbDR-25">
          <mxGeometry relative="1" as="geometry" />
        </mxCell>
        <mxCell id="c4UvGvd-CYI1I5oLqbDR-29" value="Text" style="edgeLabel;html=1;align=center;verticalAlign=middle;resizable=0;points=[];" vertex="1" connectable="0" parent="c4UvGvd-CYI1I5oLqbDR-26">
          <mxGeometry x="0.0262" y="2" relative="1" as="geometry">
            <mxPoint x="-1" as="offset" />
          </mxGeometry>
        </mxCell>
        <mxCell id="c4UvGvd-CYI1I5oLqbDR-37" value="&lt;b&gt;Stores rooms data&lt;/b&gt;" style="edgeLabel;html=1;align=center;verticalAlign=middle;resizable=0;points=[];" vertex="1" connectable="0" parent="c4UvGvd-CYI1I5oLqbDR-26">
          <mxGeometry x="0.0771" y="1" relative="1" as="geometry">
            <mxPoint x="-9" as="offset" />
          </mxGeometry>
        </mxCell>
        <mxCell id="c4UvGvd-CYI1I5oLqbDR-1" value="Room Service" style="rounded=0;whiteSpace=wrap;html=1;" vertex="1" parent="1">
          <mxGeometry x="401" y="234" width="120" height="60" as="geometry" />
        </mxCell>
        <mxCell id="c4UvGvd-CYI1I5oLqbDR-33" value="" style="edgeStyle=orthogonalEdgeStyle;rounded=0;orthogonalLoop=1;jettySize=auto;html=1;" edge="1" parent="1" source="c4UvGvd-CYI1I5oLqbDR-2" target="c4UvGvd-CYI1I5oLqbDR-32">
          <mxGeometry relative="1" as="geometry" />
        </mxCell>
        <mxCell id="c4UvGvd-CYI1I5oLqbDR-34" value="" style="edgeStyle=orthogonalEdgeStyle;rounded=0;orthogonalLoop=1;jettySize=auto;html=1;" edge="1" parent="1" source="c4UvGvd-CYI1I5oLqbDR-2" target="c4UvGvd-CYI1I5oLqbDR-32">
          <mxGeometry relative="1" as="geometry" />
        </mxCell>
        <mxCell id="c4UvGvd-CYI1I5oLqbDR-35" value="&lt;b&gt;Stores users&lt;/b&gt;" style="edgeLabel;html=1;align=center;verticalAlign=middle;resizable=0;points=[];" vertex="1" connectable="0" parent="c4UvGvd-CYI1I5oLqbDR-34">
          <mxGeometry x="-0.0988" y="-2" relative="1" as="geometry">
            <mxPoint x="-1" y="-4" as="offset" />
          </mxGeometry>
        </mxCell>
        <mxCell id="c4UvGvd-CYI1I5oLqbDR-2" value="Auth Service" style="rounded=0;whiteSpace=wrap;html=1;" vertex="1" parent="1">
          <mxGeometry x="396" y="120" width="120" height="60" as="geometry" />
        </mxCell>
        <mxCell id="c4UvGvd-CYI1I5oLqbDR-43" value="" style="edgeStyle=orthogonalEdgeStyle;rounded=0;orthogonalLoop=1;jettySize=auto;html=1;" edge="1" parent="1" source="c4UvGvd-CYI1I5oLqbDR-4" target="c4UvGvd-CYI1I5oLqbDR-42">
          <mxGeometry relative="1" as="geometry" />
        </mxCell>
        <mxCell id="c4UvGvd-CYI1I5oLqbDR-44" value="&lt;b&gt;Stores notifications&amp;nbsp;&lt;/b&gt;" style="edgeLabel;html=1;align=center;verticalAlign=middle;resizable=0;points=[];" vertex="1" connectable="0" parent="c4UvGvd-CYI1I5oLqbDR-43">
          <mxGeometry x="0.014" y="1" relative="1" as="geometry">
            <mxPoint x="1" as="offset" />
          </mxGeometry>
        </mxCell>
        <mxCell id="c4UvGvd-CYI1I5oLqbDR-45" style="edgeStyle=orthogonalEdgeStyle;rounded=0;orthogonalLoop=1;jettySize=auto;html=1;exitX=0;exitY=0.5;exitDx=0;exitDy=0;entryX=0.5;entryY=1;entryDx=0;entryDy=0;" edge="1" parent="1" source="c4UvGvd-CYI1I5oLqbDR-4" target="c4UvGvd-CYI1I5oLqbDR-13">
          <mxGeometry relative="1" as="geometry" />
        </mxCell>
        <mxCell id="c4UvGvd-CYI1I5oLqbDR-46" value="&lt;b&gt;WebSockets (New Messages &amp;amp; Alerts)&lt;/b&gt;" style="edgeLabel;html=1;align=center;verticalAlign=middle;resizable=0;points=[];" vertex="1" connectable="0" parent="c4UvGvd-CYI1I5oLqbDR-45">
          <mxGeometry x="-0.5716" y="-2" relative="1" as="geometry">
            <mxPoint as="offset" />
          </mxGeometry>
        </mxCell>
        <mxCell id="c4UvGvd-CYI1I5oLqbDR-4" value="Notification Service" style="rounded=0;whiteSpace=wrap;html=1;" vertex="1" parent="1">
          <mxGeometry x="401" y="523" width="120" height="60" as="geometry" />
        </mxCell>
        <mxCell id="c4UvGvd-CYI1I5oLqbDR-38" style="edgeStyle=orthogonalEdgeStyle;rounded=0;orthogonalLoop=1;jettySize=auto;html=1;exitX=1;exitY=0.5;exitDx=0;exitDy=0;entryX=0.5;entryY=1;entryDx=0;entryDy=0;" edge="1" parent="1" source="c4UvGvd-CYI1I5oLqbDR-5" target="c4UvGvd-CYI1I5oLqbDR-25">
          <mxGeometry relative="1" as="geometry" />
        </mxCell>
        <mxCell id="c4UvGvd-CYI1I5oLqbDR-39" value="&lt;b&gt;Stores messages&lt;/b&gt;" style="edgeLabel;html=1;align=center;verticalAlign=middle;resizable=0;points=[];" vertex="1" connectable="0" parent="c4UvGvd-CYI1I5oLqbDR-38">
          <mxGeometry x="-0.3139" y="1" relative="1" as="geometry">
            <mxPoint as="offset" />
          </mxGeometry>
        </mxCell>
        <mxCell id="c4UvGvd-CYI1I5oLqbDR-55" style="edgeStyle=orthogonalEdgeStyle;rounded=0;orthogonalLoop=1;jettySize=auto;html=1;exitX=0.5;exitY=1;exitDx=0;exitDy=0;" edge="1" parent="1" source="c4UvGvd-CYI1I5oLqbDR-5" target="c4UvGvd-CYI1I5oLqbDR-4">
          <mxGeometry relative="1" as="geometry" />
        </mxCell>
        <mxCell id="c4UvGvd-CYI1I5oLqbDR-56" value="&lt;b&gt;RabbitMQ (New Messages)&lt;/b&gt;" style="edgeLabel;html=1;align=center;verticalAlign=middle;resizable=0;points=[];" vertex="1" connectable="0" parent="c4UvGvd-CYI1I5oLqbDR-55">
          <mxGeometry x="-0.0004" y="-2" relative="1" as="geometry">
            <mxPoint as="offset" />
          </mxGeometry>
        </mxCell>
        <mxCell id="c4UvGvd-CYI1I5oLqbDR-5" value="Chat Service" style="rounded=0;whiteSpace=wrap;html=1;" vertex="1" parent="1">
          <mxGeometry x="401" y="348" width="120" height="60" as="geometry" />
        </mxCell>
        <mxCell id="c4UvGvd-CYI1I5oLqbDR-14" style="edgeStyle=orthogonalEdgeStyle;rounded=0;orthogonalLoop=1;jettySize=auto;html=1;exitX=1;exitY=0;exitDx=0;exitDy=0;" edge="1" parent="1" source="c4UvGvd-CYI1I5oLqbDR-13" target="c4UvGvd-CYI1I5oLqbDR-2">
          <mxGeometry relative="1" as="geometry">
            <Array as="points">
              <mxPoint x="130" y="30" />
              <mxPoint x="456" y="30" />
            </Array>
          </mxGeometry>
        </mxCell>
        <mxCell id="c4UvGvd-CYI1I5oLqbDR-15" value="REST&amp;nbsp; API (Login/Register)" style="edgeLabel;html=1;align=center;verticalAlign=middle;resizable=0;points=[];fontStyle=1" vertex="1" connectable="0" parent="c4UvGvd-CYI1I5oLqbDR-14">
          <mxGeometry x="-0.4431" y="2" relative="1" as="geometry">
            <mxPoint x="-7" y="1" as="offset" />
          </mxGeometry>
        </mxCell>
        <mxCell id="c4UvGvd-CYI1I5oLqbDR-18" style="edgeStyle=orthogonalEdgeStyle;rounded=0;orthogonalLoop=1;jettySize=auto;html=1;exitX=1;exitY=0.25;exitDx=0;exitDy=0;entryX=0;entryY=0.5;entryDx=0;entryDy=0;" edge="1" parent="1" source="c4UvGvd-CYI1I5oLqbDR-13" target="c4UvGvd-CYI1I5oLqbDR-1">
          <mxGeometry relative="1" as="geometry">
            <mxPoint x="130" y="83" as="sourcePoint" />
            <mxPoint x="232" y="267" as="targetPoint" />
            <Array as="points">
              <mxPoint x="130" y="60" />
              <mxPoint x="380" y="60" />
              <mxPoint x="380" y="264" />
            </Array>
          </mxGeometry>
        </mxCell>
        <mxCell id="c4UvGvd-CYI1I5oLqbDR-19" value="REST API (Create/Join Rooms)" style="edgeLabel;html=1;align=center;verticalAlign=middle;resizable=0;points=[];fontStyle=1" vertex="1" connectable="0" parent="c4UvGvd-CYI1I5oLqbDR-18">
          <mxGeometry x="-0.3668" y="-3" relative="1" as="geometry">
            <mxPoint x="-23" y="-5" as="offset" />
          </mxGeometry>
        </mxCell>
        <mxCell id="c4UvGvd-CYI1I5oLqbDR-22" style="edgeStyle=orthogonalEdgeStyle;rounded=0;orthogonalLoop=1;jettySize=auto;html=1;entryX=0;entryY=0.5;entryDx=0;entryDy=0;" edge="1" parent="1" target="c4UvGvd-CYI1I5oLqbDR-5">
          <mxGeometry relative="1" as="geometry">
            <mxPoint x="130" y="80" as="sourcePoint" />
            <Array as="points">
              <mxPoint x="130" y="110" />
              <mxPoint x="350" y="110" />
              <mxPoint x="350" y="378" />
            </Array>
          </mxGeometry>
        </mxCell>
        <mxCell id="c4UvGvd-CYI1I5oLqbDR-23" value="&lt;b&gt;WebSockets (real-Time Chat)&lt;/b&gt;" style="edgeLabel;html=1;align=center;verticalAlign=middle;resizable=0;points=[];" vertex="1" connectable="0" parent="c4UvGvd-CYI1I5oLqbDR-22">
          <mxGeometry x="-0.6685" y="1" relative="1" as="geometry">
            <mxPoint x="42" y="-1" as="offset" />
          </mxGeometry>
        </mxCell>
        <mxCell id="c4UvGvd-CYI1I5oLqbDR-13" value="Frontend" style="rounded=0;whiteSpace=wrap;html=1;" vertex="1" parent="1">
          <mxGeometry x="10" y="20" width="120" height="60" as="geometry" />
        </mxCell>
        <mxCell id="c4UvGvd-CYI1I5oLqbDR-25" value="ChatDB" style="rounded=0;whiteSpace=wrap;html=1;" vertex="1" parent="1">
          <mxGeometry x="661" y="234" width="120" height="60" as="geometry" />
        </mxCell>
        <mxCell id="c4UvGvd-CYI1I5oLqbDR-32" value="UserDB" style="rounded=0;whiteSpace=wrap;html=1;" vertex="1" parent="1">
          <mxGeometry x="660" y="120" width="120" height="60" as="geometry" />
        </mxCell>
        <mxCell id="c4UvGvd-CYI1I5oLqbDR-42" value="NotificationsDB" style="rounded=0;whiteSpace=wrap;html=1;" vertex="1" parent="1">
          <mxGeometry x="658" y="522" width="120" height="60" as="geometry" />
        </mxCell>
      </root>
    </mxGraphModel>
  </diagram>
</mxfile>
